<?xml version="1.0" encoding="UTF-8"?> <svg xmlns="http://www.w3.org/2000/svg" xmlns:xlink="http://www.w3.org/1999/xlink" viewBox="0 0 561.91 266.33"><defs><style>.cls-1{fill:#a1d9e9;}.cls-2,.cls-26{fill:none;stroke-linecap:round;stroke-miterlimit:10;}.cls-2{stroke:#0dafd7;}.cls-3{fill:url(#linear-gradient);}.cls-4{fill:#7cd2e8;}.cls-4,.cls-5,.cls-6,.cls-8{opacity:0.5;}.cls-5,.cls-7{fill:#fff;}.cls-8{fill:#d1e5f1;}.cls-9{fill:#eb5f23;}.cls-10{fill:#9aa1c1;}.cls-11{fill:#0c3563;}.cls-12{fill:#c45b1c;}.cls-13{fill:#031467;}.cls-14{fill:#021d7f;}.cls-15{fill:#ff9741;}.cls-16{fill:#e07e2b;}.cls-17{fill:#d2e9f3;}.cls-18{fill:#92cae6;}.cls-19{fill:#bed6ea;}.cls-20{fill:#5f9fe9;}.cls-21{fill:#233862;}.cls-22{fill:#2b4789;}.cls-23{fill:#2c3b64;}.cls-24{fill:#7480c3;}.cls-25{fill:#b44c41;}.cls-26{stroke:#4f5c92;}</style><linearGradient id="linear-gradient" x1="24.19" y1="129.72" x2="542.18" y2="129.72" gradientUnits="userSpaceOnUse"><stop offset="0.18" stop-color="#a1d9e9" stop-opacity="0.8"></stop><stop offset="0.41" stop-color="#6ccae3" stop-opacity="0.87"></stop><stop offset="0.67" stop-color="#39bbdc" stop-opacity="0.94"></stop><stop offset="0.87" stop-color="#19b2d8" stop-opacity="0.98"></stop><stop offset="1" stop-color="#0dafd7"></stop></linearGradient></defs><g id="CAFM"><g id="Group_103" data-name="Group 103"><circle id="Ellipse_10" data-name="Ellipse 10" class="cls-1" cx="41.15" cy="95.32" r="2.3"></circle><circle id="Ellipse_15" data-name="Ellipse 15" class="cls-1" cx="41.15" cy="81.55" r="2.3"></circle><circle id="Ellipse_20" data-name="Ellipse 20" class="cls-1" cx="41.15" cy="67.78" r="2.3"></circle><circle id="Ellipse_11" data-name="Ellipse 11" class="cls-1" cx="31.97" cy="95.32" r="2.3"></circle><circle id="Ellipse_16" data-name="Ellipse 16" class="cls-1" cx="31.97" cy="81.55" r="2.3"></circle><circle id="Ellipse_21" data-name="Ellipse 21" class="cls-1" cx="31.97" cy="67.78" r="2.3"></circle><circle id="Ellipse_13" data-name="Ellipse 13" class="cls-1" cx="36.88" cy="88.44" r="1.97"></circle><circle id="Ellipse_25" data-name="Ellipse 25" class="cls-1" cx="36.88" cy="102.21" r="1.97"></circle><circle id="Ellipse_27" data-name="Ellipse 27" class="cls-1" cx="32.62" cy="54.01" r="2.3"></circle><circle id="Ellipse_17" data-name="Ellipse 17" class="cls-1" cx="36.88" cy="74.67" r="1.97"></circle><circle id="Ellipse_22" data-name="Ellipse 22" class="cls-1" cx="36.88" cy="60.9" r="1.97"></circle><circle id="Ellipse_12" data-name="Ellipse 12" class="cls-1" cx="22.79" cy="95.32" r="2.3"></circle><circle id="Ellipse_18" data-name="Ellipse 18" class="cls-1" cx="22.79" cy="81.55" r="2.3"></circle><circle id="Ellipse_23" data-name="Ellipse 23" class="cls-1" cx="22.79" cy="67.78" r="2.3"></circle><circle id="Ellipse_14" data-name="Ellipse 14" class="cls-1" cx="27.7" cy="88.44" r="1.97"></circle><circle id="Ellipse_26" data-name="Ellipse 26" class="cls-1" cx="27.7" cy="102.21" r="1.97"></circle><circle id="Ellipse_28" data-name="Ellipse 28" class="cls-1" cx="32.62" cy="109.09" r="2.3"></circle><circle id="Ellipse_19" data-name="Ellipse 19" class="cls-1" cx="27.7" cy="74.67" r="1.97"></circle><circle id="Ellipse_24" data-name="Ellipse 24" class="cls-1" cx="27.7" cy="60.9" r="1.97"></circle></g></g><g id="Hero_Image" data-name="Hero Image"><line class="cls-2" x1="190.81" y1="261.77" x2="334.38" y2="261.77"></line></g><g id="Layer_18" data-name="Layer 18"><path class="cls-1" d="M467.33,20c2.5,0,3.74,1.62,4.94,3.19s2.25,2.94,4.44,2.94,3.29-1.43,4.45-2.94S483.6,20,486.1,20s3.73,1.62,4.93,3.19,2.25,2.94,4.45,2.94,3.28-1.43,4.44-2.94S502.36,20,504.86,20s3.73,1.62,4.93,3.19,2.25,2.94,4.45,2.94,3.28-1.43,4.44-2.94S521.12,20,523.62,20s3.73,1.62,4.93,3.19,2.25,2.94,4.44,2.94,3.29-1.43,4.45-2.94S539.88,20,542.37,20v.61c-2.19,0-3.28,1.43-4.44,2.95s-2.44,3.19-4.94,3.19-3.73-1.62-4.93-3.19-2.25-2.95-4.44-2.95-3.29,1.43-4.45,2.95-2.44,3.19-4.93,3.19-3.74-1.62-4.94-3.19-2.25-2.95-4.44-2.95-3.29,1.43-4.45,2.95-2.44,3.19-4.93,3.19-3.74-1.62-4.94-3.19-2.25-2.95-4.44-2.95-3.29,1.43-4.45,2.95-2.44,3.19-4.94,3.19-3.73-1.62-4.93-3.19-2.25-2.95-4.45-2.95S464,22,462.88,23.55s-2.43,3.19-4.93,3.19v-.62c2.19,0,3.29-1.43,4.45-2.94S464.83,20,467.33,20Z"></path><path class="cls-3" d="M447.19,252.46s51.87-1.23,74-32.66c40.15-57,22-106.89-49.42-103.17-80,4.16-70.1-172.36-208.56-87.37C233.18,47.71,166.27,9,139.54,89.7c-6.36,19.2-54.1,20.54-84.95,35.94-48.4,24.15-34.73,127.23,11,127.63S447.19,252.46,447.19,252.46Z"></path><path class="cls-4" d="M531.11,168.76c-1-.58-2-1.12-3-1.63l-1.27-.61c-1.89-.87-3.82-1.64-5.79-2.33l-4.26-1.41c-3.41-1.06-6.85-2-10.18-3-1.22-.37-2.42-.74-3.6-1.14s-2.25-.78-3.35-1.21a45.13,45.13,0,0,1-5.58-2.58,3.9,3.9,0,0,1-.35-.19c-.49-.27-1-.56-1.44-.86a25.3,25.3,0,0,1-7.45-7.07l-.31-.48c-.28-.42-.54-.86-.79-1.3a30.31,30.31,0,0,1-3.38-10.34H467.08v18.56h-9.42v4.67H447.51v-8.05H429.24V127.91h-2.86v-2.18H426v2.18H411.75v-2.17h-.41v2.17h-3.08v11l-15.35-.06v6.79h-13v-42H341.36v45H329.59V124.31H291V153H272.33l-.22-15.39H261.93V117.35l-.47-.24H240.77v3h0v2.08h0v3h0v2.09h0v3h-1.86V114.52h-19.8v2h0v3h0v2.66h0v3h0v2.09h0v3h0v1.94h0v3h0v1.93h0v3h0v1.82h0v1.93h0v.21H196.79V161.6h-8.33V166h-9v-7.52H163.29V138h-2.53v-2h-.36v2H147.81v-2h-.36v2h-2.73v10.28l-13.59-.06v6.35H119.61V115.36H85.49v42H75.07V134.65H42.39c-.49.5-1,1-1.45,1.53V161.4H27.71c-.6,2-1.1,4-1.55,6a99.75,99.75,0,0,0-1.87,24.87,166.91,166.91,0,0,0,2.41,17.88c5.39,23.8,19.14,43.07,38.85,43.24,22.88.21,118.43,0,208.19-.25V253H291v0c82.8-.24,156.12-.51,156.12-.51s51.87-1.23,74-32.66c10.58-15,17.11-29.54,19.69-42.72A34.8,34.8,0,0,0,531.11,168.76Z"></path><rect class="cls-5" x="471.77" y="125.94" width="0.71" height="8.81"></rect><rect class="cls-5" x="343.92" y="100.52" width="0.46" height="3.14"></rect><rect class="cls-5" x="353.68" y="100.52" width="0.46" height="3.14"></rect><rect class="cls-5" x="376.04" y="100.52" width="0.46" height="3.14"></rect><rect class="cls-5" x="367.3" y="100.52" width="0.46" height="3.14"></rect><rect class="cls-5" x="94.27" y="115.36" width="25.35" height="6.65"></rect><rect class="cls-5" x="94.27" y="125.59" width="25.35" height="6.65"></rect><rect class="cls-5" x="94.27" y="136.03" width="25.35" height="6.65"></rect><rect class="cls-5" x="94.27" y="146.64" width="25.35" height="6.65"></rect><rect class="cls-5" x="94.27" y="156.88" width="25.35" height="6.65"></rect><g class="cls-6"><rect class="cls-7" x="219.12" y="114.52" width="12.67" height="4.04"></rect><rect class="cls-7" x="219.12" y="120.74" width="12.67" height="4.04"></rect><rect class="cls-7" x="219.12" y="127.08" width="12.67" height="4.04"></rect><rect class="cls-7" x="219.12" y="133.52" width="12.67" height="4.04"></rect><rect class="cls-7" x="219.12" y="139.74" width="12.67" height="4.04"></rect></g><g class="cls-6"><rect class="cls-7" x="219.12" y="146.58" width="12.67" height="4.04"></rect><rect class="cls-7" x="219.12" y="152.79" width="12.67" height="4.04"></rect><rect class="cls-7" x="219.12" y="159.14" width="12.67" height="4.04"></rect><rect class="cls-7" x="219.12" y="165.58" width="12.67" height="4.04"></rect><rect class="cls-7" x="219.12" y="171.8" width="12.67" height="4.04"></rect></g><g class="cls-6"><rect class="cls-7" x="240.81" y="117.17" width="12.67" height="4.04"></rect><rect class="cls-7" x="240.81" y="123.38" width="12.67" height="4.04"></rect><rect class="cls-7" x="240.81" y="129.73" width="12.67" height="4.04"></rect><rect class="cls-7" x="240.81" y="136.17" width="12.67" height="4.04"></rect><rect class="cls-7" x="240.81" y="142.39" width="12.67" height="4.04"></rect></g><rect class="cls-5" x="200.95" y="136.17" width="0.63" height="8.24"></rect><rect class="cls-5" x="211.54" y="129.1" width="0.98" height="15.95"></rect><rect class="cls-8" x="87.75" y="112.42" width="0.41" height="2.94"></rect><rect class="cls-5" x="96.39" y="112.42" width="0.41" height="2.94"></rect><rect class="cls-5" x="116.2" y="112.42" width="0.41" height="2.94"></rect><rect class="cls-5" x="221.08" y="112.26" width="0.31" height="2.27"></rect><rect class="cls-5" x="235.94" y="112.26" width="0.31" height="2.27"></rect><rect class="cls-5" x="108.45" y="112.42" width="0.41" height="2.94"></rect><g class="cls-6"><rect class="cls-7" x="341.55" y="107.58" width="25.17" height="5.12"></rect><rect class="cls-7" x="341.55" y="115.47" width="25.17" height="5.12"></rect><rect class="cls-7" x="341.55" y="123.52" width="25.17" height="5.12"></rect><rect class="cls-7" x="341.55" y="131.7" width="25.17" height="5.12"></rect><rect class="cls-7" x="341.55" y="139.6" width="25.17" height="5.12"></rect></g><g class="cls-6"><rect class="cls-7" x="303.26" y="126.69" width="26.25" height="5.98"></rect><rect class="cls-7" x="303.26" y="135.9" width="26.25" height="5.98"></rect><rect class="cls-7" x="303.26" y="145.29" width="26.25" height="5.98"></rect><rect class="cls-7" x="303.26" y="154.84" width="26.25" height="5.98"></rect><rect class="cls-7" x="303.26" y="164.06" width="26.25" height="5.98"></rect></g><g id="P297LW"><path class="cls-9" d="M442.75,166a42.3,42.3,0,0,1-12.54-.62,13.6,13.6,0,0,1-2.54-.79,3.92,3.92,0,0,1-1.85-1.39,52.65,52.65,0,0,1-2.57-7.68c-3.07-10.66-7.38-28.26-7.38-28.26s8.66,1.77,10.49,3.28,3.45,25.43,5.18,26.08c.25.1.69.3,1.25.57l.08,0,1.12.57c3.57,1.84,9.49,5.15,10.1,5.88C444.9,164.63,444.85,165.49,442.75,166Z"></path><path class="cls-9" d="M426.13,140.86a7.28,7.28,0,0,0-.11-1.22c-1.12-6.13-10-12.4-10.15-12.4v.13c0,.93-1.48,2.66-3.75,2.81-2.7.18-6-1.36-6-2.91,0,0-1.51.2-2,.25-2.16.25-6.47,1.42-8.32,2.81S396.47,140,398,146a23.78,23.78,0,0,1,1.05,5.49c0,.45-.44,6.54-.8,12-.29,4.54-.56,8.68-.57,8.94,0,.52,2.54,2.33,6.85,3.69A35.22,35.22,0,0,0,408,177a36.59,36.59,0,0,0,7.42.73,25.26,25.26,0,0,0,2.53-.12C424.06,177,426.17,170,426.13,140.86Z"></path><path class="cls-10" d="M406.1,127.19a51.24,51.24,0,0,1,.31-7.62l9.49,1.55s0,2.9,0,6.12c0,0,.26,3-3.41,3.42S406,129.5,406.1,127.19Z"></path><path class="cls-11" d="M414,253c-1.19-.74-.49-6.18-.49-6.18s5.59-4.44,6.35-1,5.28,5,7.85,5.4c1.78.3,2.44,1.22,2.61,1.8Z"></path><path class="cls-12" d="M405.34,159.3c0,9.1-4.41,6.65-7.08,4.19.36-5.5.62-25,.62-25S405.34,146.25,405.34,159.3Z"></path><path class="cls-12" d="M434,157.78c-.18,1.28-2.19,5-3.78,7.58a13.6,13.6,0,0,1-2.54-.79,3.92,3.92,0,0,1-1.85-1.39,52.65,52.65,0,0,1-2.57-7.68c.82-4.76,1.6-9.46,1.6-9.46l.25-3.16c0,.25,3.69,14.1,5.36,14.42a5.79,5.79,0,0,0,2.33-.13l.08,0Z"></path><path class="cls-11" d="M396.9,253c-1.19-.74-.49-6.18-.49-6.18s5.59-4.44,6.35-1,5.28,5,7.85,5.4c1.78.3,2.43,1.22,2.6,1.8Z"></path><path class="cls-13" d="M405.19,116.83s-6.34-10,5.84-10.65c0,0,4.56.53,5.6-.5a11.17,11.17,0,0,1,.23,11.15C413.55,122.6,405.19,116.83,405.19,116.83Z"></path><path class="cls-10" d="M415.62,122.05a12.85,12.85,0,0,1-4.41,1.53,35.16,35.16,0,0,1-4.74-1.33c-1.13-.69-1.06-2.07-1.12-4a29.52,29.52,0,0,1,0-5.39c.3-1.57,1.3-2.47,4.09-2.71,5.13-.44,7.26.84,7.35,2.56,0,.46.05.9.06,1.32C417,119.39,416.59,121.29,415.62,122.05Z"></path><path class="cls-13" d="M416.86,115.78c-.05,3.11-.89,5-1.5,5.18a13,13,0,0,1-2.37.63c-.29,0-.57,0-.57-.14,0-.49.67-1.09.18-1.52s-3.25-.61-3.47.38c-.1.48.78,1.34.17,1.36l-.53-.11a7.92,7.92,0,0,1-2.11-.93c-1.13-.69-1.06-1.74-1.31-3.65-.16-1.24-.16-.57,0,1.27s-.16,3.15,1.12,4c.71.47,4.8,2.3,4.8,2.3-.06-1,3.43-1.77,4.35-2.5S416.91,119.82,416.86,115.78Z"></path><path class="cls-14" d="M397.69,172.43c0,.52,2.55,2.33,6.85,3.69l1.08.32h0c.4,4.71,1.48,11.37,2.47,17.8h0c.25,1.66.49,3.31.72,4.91a97.76,97.76,0,0,1,1.1,10.84v0c0,1.27-1.06,4.44-1.14,5.17,0,.45-.09.92-.12,1.42a59,59,0,0,0,.09,6.83c.71,10.92,3.59,24.9,4.62,25.49,2.05,1.19,5.78,0,7.67-.27a1.58,1.58,0,0,0,1.37-1.58c-.92-18.13,1.73-43.37,3.72-58.89.05-.41.1-.8.15-1.19.24-1.83.4-3.54.49-5.08.1-1.36.14-2.58.16-3.65,0-.33,0-.64,0-.94,0-1-.77-7.34-.81-36.48h0a1.22,1.22,0,0,0-1.22-1.22H407.09a3.09,3.09,0,0,0-3.09,3.13,49.66,49.66,0,0,1-.53,8.29c-.66,4.05-2.07,7.83-5,8.74h0s-.1.21-.22.5h0c0,.73-.06,1.47-.1,2.23,0,.15,0,.31,0,.46s0,.18,0,.27,0,.31,0,.47,0,.51,0,.77,0,.41,0,.61c0,.4,0,.79-.07,1.2,0,.13,0,.25,0,.39,0,.52-.07,1-.11,1.58,0,.16,0,.32,0,.49a1.94,1.94,0,0,1,0,.24c0,.2,0,.41,0,.62s0,.45-.05.67C397.61,171.13,397.71,171.86,397.69,172.43Z"></path><path class="cls-13" d="M408.75,223.45c.71,10.92,3.59,24.9,4.62,25.49,2.05,1.19,5.78,0,7.67-.27a1.58,1.58,0,0,0,1.37-1.58c-.92-18.13,1.73-43.37,3.72-58.89.05-.41.1-.8.15-1.19.24-1.83.4-3.54.49-5.08-.94-6.16-6.27-6.49-11.1,6.24C416.27,192.4,408.59,221,408.75,223.45Z"></path><path class="cls-14" d="M397.49,209.48c-.15,1.27-1.62,4.27-1.8,5-2.44,9.83-1.09,33.13.12,34.06,1.87,1.44,5.72.76,7.63.73a1.56,1.56,0,0,0,1.57-1.38c1.5-18.56,7.73-44.06,11.73-59.06A70.83,70.83,0,0,0,419,175.7s-18.71-11.46-20.73-5.2C396.52,176,398.62,199.79,397.49,209.48Z"></path><path class="cls-15" d="M416.55,103.38c-.13-.14-.27-.29-.41-.42a7.35,7.35,0,0,0-2.23-1.45,7.47,7.47,0,0,0-7.66,1.18l-.47.38a9.58,9.58,0,0,0-1.43,1.48s-1.59,2.16-1.53,6.71l16.32.18S419.38,106.52,416.55,103.38Z"></path><path class="cls-16" d="M407.4,111.31h.89c0-.26,0-6.18-2.23-8.48l-.28.23C407.88,105.09,407.4,111.25,407.4,111.31Z"></path><path class="cls-16" d="M414.49,111.39a24.66,24.66,0,0,1,1.95-8.11c-.13-.15-.16-.18-.3-.32a22,22,0,0,0-2.62,8.42l-10.7-.12a55.32,55.32,0,0,0,8.7,1.26,35.79,35.79,0,0,0,7.62-1.08Z"></path><path class="cls-14" d="M403.43,127.61s5.52,6.42,5.84,12l-2.81.15A27,27,0,0,0,401.6,128s.65-.16.87-.2Z"></path><path class="cls-14" d="M417.18,127.52a28.07,28.07,0,0,1,4.37,12.24l2.84,0c-.24-4.4-3-9.25-4.53-11.55C419.86,128.16,417.9,127.67,417.18,127.52Z"></path><path class="cls-9" d="M411,189.17h-2.28c-1.05-.48-6.76-2.95-12.24-3-3.95,0-8.46,2.93-8.73,3a14.83,14.83,0,0,0,2.29.11s4.47-2,6.47-2,6.16,1.35,7.85,1.93H391.62a1.94,1.94,0,0,0-1.94,1.94v14.55a1.94,1.94,0,0,0,1.94,1.94H411a1.94,1.94,0,0,0,1.94-1.94V191.11A1.94,1.94,0,0,0,411,189.17Z"></path><rect class="cls-12" x="383.37" y="189.17" width="23.28" height="18.43" rx="1.94"></rect><path class="cls-9" d="M399,162.09c.14,6.58-.68,19.68-.68,19.68h-3.88c-1.84-9.22-2.48-15.15-2.48-18.38,0-.64,0-1.23,0-1.78,0-2.76.09-4.36.09-4.36-.72-16.74,2.62-25.68,3.67-26.92S401.6,128,401.6,128a64.85,64.85,0,0,1,2.23,8.34c.65,3.72-5.08,19.34-4.85,24.68C399,161.35,399,161.71,399,162.09Z"></path><rect class="cls-15" x="445.68" y="166.57" width="4.27" height="86.59" rx="0.57"></rect><path class="cls-11" d="M449.38,166.57h-3.14a.57.57,0,0,0-.56.57v2.65H450v-2.65A.58.58,0,0,0,449.38,166.57Z"></path><path class="cls-11" d="M445.68,252.59a.56.56,0,0,0,.56.57h3.14a.57.57,0,0,0,.57-.57v-2.28h-4.27Z"></path><path class="cls-16" d="M447.84,172.17a.32.32,0,0,0-.32.32v75.22a.32.32,0,1,0,.64,0V172.49A.32.32,0,0,0,447.84,172.17Z"></path><path class="cls-10" d="M398.34,181.77s.82-13.1.68-19.68a13.74,13.74,0,0,0-7-.48c0,.55,0,1.14,0,1.78,0,3.23.64,9.16,2.48,18.38-.81,3.4-.76,7.06.64,7.71s6-1.78,6-2.86S398.34,181.77,398.34,181.77Z"></path><path class="cls-10" d="M451.43,166.63a4.29,4.29,0,0,0-1.61-2.83,5.46,5.46,0,0,0-4.27-.5,4.74,4.74,0,0,1-2.33-.31c-2.17-1.45-7.63-4.44-10.35-5.78a11.39,11.39,0,0,0-5.2,7.36c4.18,1.84,13.33,1.81,15.08,1.41a7.44,7.44,0,0,0,2.84,1.28,4.39,4.39,0,0,0,1.6-.28,2.17,2.17,0,0,1,2.41.77,3,3,0,0,0,1.69,1.14C451.79,168.89,451.67,167.5,451.43,166.63Z"></path></g><rect class="cls-9" x="110.48" y="183.46" width="23.28" height="18.43" rx="1.94"></rect><rect class="cls-12" x="116.79" y="183.46" width="23.28" height="18.43" rx="1.94"></rect><path class="cls-9" d="M114.53,183.54s4.6-3.4,5.29-3.32,1.78.33,1.78.33l-4.12,3.11Z"></path><path class="cls-17" d="M150.9,129.9c-1.85-1.39-6.17-2.56-8.33-2.81-.5,0-2-.06-2-.06,0,1.55-3.31,2.9-6,2.72-2.27-.15-3.75-1.88-3.75-2.81h0c-.17,0-9,6.15-10.14,12.28a6.38,6.38,0,0,0-.12,1.22c0,29.14-1.8,33.61-1.24,33.6a19.62,19.62,0,0,0,9.46,3.16c.8.07,1.64.12,2.53.12a36.61,36.61,0,0,0,7.43-.73c1.23-.26,2.37-.56,3.41-.89,4.31-1.36,6.87-3.17,6.85-3.69s.09-1.3,0-2.12c-.27-3.08-.42-5.78-.53-8.49a31.88,31.88,0,0,0,7.37,0C159.63,153.1,153.4,131.79,150.9,129.9Zm-1.09,23.72c-.29.08-.6.15-.93.22l-.71.14c0-.11,0-.22,0-.33-.07-1.53-.14-3-.24-4.36-.08-1.16-.18-2.27-.32-3.33C149.21,150.22,150.34,153.48,149.81,153.62Z"></path><path class="cls-18" d="M130.77,126.94s-6.84,1-9.79,3.49-3.24,18.09-4.22,22.51a33.13,33.13,0,0,0-.52,4,86.27,86.27,0,0,0,.63,17.39,6.81,6.81,0,0,1-.4,2.9c-.76,1.89-.92,2.43.43,3.51s2.8,2.58,3.82,2.15c.79-.33.65-5.57.55-8,1.18-5.08,3.09-14.62,4.9-23.86C128.57,138.73,130.77,126.94,130.77,126.94Z"></path><path class="cls-17" d="M130.77,126.94s-1.27,6.8-2.93,15.46c-.53,2.75-1.09,5.69-1.67,8.66-2.36,4.62-4.38,7.75-5,7.16-1.28-1.2-3.51-1.35-4.93-1.3a33.13,33.13,0,0,1,.52-4c.07-.35.15-.77.22-1.24.82-5.57,1.29-19,4-21.27a16.53,16.53,0,0,1,5.81-2.61h0c1-.29,2-.51,2.72-.65S130.77,126.94,130.77,126.94Z"></path><path class="cls-19" d="M121.17,158.22c-1.28-1.2-3.51-1.35-4.93-1.3a33.13,33.13,0,0,1,.52-4c.07-.35.15-.77.22-1.24l7.06-17S121.79,158.81,121.17,158.22Z"></path><path class="cls-18" d="M140.55,126.76a52.62,52.62,0,0,0-.31-7.62l-9.5,1.55s0,2.9,0,6.12h0s-.25,3,3.42,3.42S140.65,129.07,140.55,126.76Z"></path><path class="cls-11" d="M132.6,252.94c1.19-.73.5-6.22.5-6.22s-5.6-4.44-6.35-1-5.28,5-7.86,5.4A2.74,2.74,0,0,0,116.4,253Z"></path><path class="cls-19" d="M148.88,153.85s-1.78,2.4-2.14,2.4-4.85-1.73-3.56-5.62A6.89,6.89,0,0,1,147.6,146c.14,1.06.24,2.17.32,3.33.1,1.38.17,2.83.24,4.36,0,.11,0,.22,0,.33l.71-.14Z"></path><path class="cls-11" d="M149.74,252.94c1.19-.73.49-6.22.49-6.22s-5.59-4.44-6.34-1-5.28,5-7.86,5.4a2.74,2.74,0,0,0-2.49,1.86Z"></path><path class="cls-13" d="M141.45,116.4s6.34-10-5.83-10.65c0,0-4.57.53-5.6-.5a11.18,11.18,0,0,0-.24,11.15C133.09,122.17,141.45,116.4,141.45,116.4Z"></path><path class="cls-18" d="M131,121.62a12.9,12.9,0,0,0,4.42,1.53,35.16,35.16,0,0,0,4.74-1.33c1.13-.69,1-2.07,1.11-4a30.63,30.63,0,0,0,.05-5.39c-.31-1.57-1.3-2.47-4.1-2.71-5.12-.44-7.26.84-7.35,2.56q0,.69-.06,1.32C129.63,119,130.05,120.86,131,121.62Z"></path><path class="cls-13" d="M129.79,115.35c.05,3.11.89,5,1.49,5.18a12.88,12.88,0,0,0,2.38.63c.29,0,.56,0,.56-.14,0-.49-.66-1.09-.18-1.52s3.25-.61,3.47.38c.11.48-.77,1.34-.17,1.36l.54-.11a8.08,8.08,0,0,0,2.11-.93c1.13-.69,1-1.74,1.3-3.65.16-1.24.16-.57,0,1.27s.16,3.15-1.11,4c-.71.47-4.8,2.3-4.8,2.3.06-1-3.43-1.77-4.36-2.5S129.74,119.39,129.79,115.35Z"></path><path class="cls-14" d="M149,172c0,.52-2.54,2.33-6.85,3.69-.34.11-.7.22-1.07.32a0,0,0,0,0,0,0c-.4,4.71-1.49,11.37-2.47,17.79h0c-.25,1.66-.5,3.31-.73,4.91a99.88,99.88,0,0,0-1.09,10.84v0c0,1.27,1.05,4.44,1.13,5.17,0,.45.09.92.12,1.42a56.81,56.81,0,0,1-.09,6.83c-.7,10.92-3.59,24.9-4.62,25.49-2.05,1.19-5.77,0-7.66-.27a1.58,1.58,0,0,1-1.38-1.58c.93-18.13-1.73-43.37-3.71-58.89,0-.41-.11-.8-.16-1.19-.23-1.83-.39-3.54-.49-5.08-.09-1.36-.13-2.58-.15-3.65,0-.33,0-.64,0-.94,0-1,.77-7.34.8-36.48h0a1.23,1.23,0,0,1,1.23-1.22h17.82a3.09,3.09,0,0,1,3.08,3.13,49.77,49.77,0,0,0,.54,8.29c.66,4.05,2.06,7.82,5,8.73h0l.22.5h0c0,.73.06,1.47.09,2.23,0,.15,0,.31,0,.46s0,.18,0,.27,0,.31,0,.47,0,.51,0,.77l0,.61c0,.4.05.79.07,1.2,0,.13,0,.25,0,.39,0,.52.07,1,.11,1.58l0,.49c0,.08,0,.16,0,.24s0,.41,0,.62l.06.67C149,170.7,148.93,171.43,149,172Z"></path><path class="cls-13" d="M137.89,223c-.7,10.92-3.59,24.9-4.62,25.49-2.05,1.19-5.77,0-7.66-.27a1.58,1.58,0,0,1-1.38-1.58c.93-18.13-1.73-43.37-3.71-58.89,0-.41-.11-.8-.16-1.19-.23-1.83-.39-3.54-.49-5.08.94-6.16,6.27-6.49,11.11,6.24C133.05,192.67,138.05,220.52,137.89,223Z"></path><path class="cls-14" d="M149.15,209.05c.15,1.27,1.63,4.27,1.81,5,2.44,9.83,1.09,33.13-.12,34.06-1.88,1.44-5.72.76-7.64.73a1.55,1.55,0,0,1-1.56-1.38c-1.51-18.56-7.73-44.06-11.73-59.06a70.42,70.42,0,0,1-2.31-13.11s18.71-11.46,20.74-5.2C150.13,175.61,148,199.36,149.15,209.05Z"></path><path class="cls-15" d="M142.3,104.12a10.21,10.21,0,0,0-1.43-1.48l-.47-.38a7.47,7.47,0,0,0-7.66-1.18,7.23,7.23,0,0,0-2.23,1.45,4.07,4.07,0,0,0-.41.42c-2.83,3.14-2.59,8.06-2.59,8.06l16.32-.18C143.88,106.28,142.3,104.12,142.3,104.12Z"></path><path class="cls-16" d="M139.25,110.88c0-.06-.48-6.22,1.62-8.24l-.28-.23c-2.21,2.3-2.26,8.22-2.24,8.48Z"></path><path class="cls-16" d="M133.13,111a20.72,20.72,0,0,0-2.62-8.42,2.2,2.2,0,0,0-.3.31,23.87,23.87,0,0,1,2,8.12l-4.66.05a35.79,35.79,0,0,0,7.62,1.08,55.53,55.53,0,0,0,8.7-1.26Z"></path><path class="cls-14" d="M143.21,127.18s-5.51,6.42-5.83,12h2.8A26.85,26.85,0,0,1,145,127.56Z"></path><path class="cls-14" d="M129.51,127.17a28.14,28.14,0,0,0-4.42,12h-2.8c.23-4.41,3-9.1,4.5-11.39h0C127.83,127.53,128.79,127.31,129.51,127.17Z"></path><path class="cls-15" d="M158,161.89a57.13,57.13,0,0,0-.95-7.7,24.78,24.78,0,0,1-.31,4.08c.69,5.52.42,9.75-.81,12.14a8.26,8.26,0,0,1-3.09,3.38,9.87,9.87,0,0,0,1.71-2.26c.94-1.69,1.82-4.85,1.49-10.68-.06.17-.13.33-.2.49,0,0-.24,0-.71.08.19,4.26-.26,7.52-1.35,9.47a8,8,0,0,1-3.28,3.29,9.53,9.53,0,0,0,1.17-1.41c1.12-1.65,2.3-4.89,2.35-11.26l-.94,0c-.05,4.88-.77,8.51-2.12,10.5l-.2.27c1-1.76,2-5,2.06-10.77h-.93c-.05,4.87-.77,8.5-2.12,10.49a7.72,7.72,0,0,1-3.14,2.71c-.37-.06-.75-.15-1.14-.25l-.15,0h0l-.15-.05c-.47-.13-.92-.29-1.36-.46-5.4-2.14-8.49-7-8.79-10.93a63.86,63.86,0,0,1,.58-11.56c1.12-9,3.56-19.4,6.53-23.54l.15-.2h0l.19-.23c.11-.13.22-.26.33-.37h0a3.77,3.77,0,0,1,.69-.57l.21.14a3.92,3.92,0,0,1,.68.71h0c.31.07.63.14,1,.23l.47.12h0l.11,0,.58.17.33.1.38.13.43.14.44.16h0c-1.75-2.76-3-3.4-3.8-3.36a2.35,2.35,0,0,0-.37.05,1.58,1.58,0,0,0-.41-.05,2.32,2.32,0,0,0-.81.15,4.35,4.35,0,0,0-2.61,1.57l-.18.2a15.67,15.67,0,0,0-1.51,2h0c-4.77,7.56-9.23,24.33-9.49,32.18-.21,6.22,4.57,11.77,9.41,14.05.47.22.94.41,1.4.58q.39.14.78.24h0a10.76,10.76,0,0,0,2.9.42l.6,0,.6,0a8.73,8.73,0,0,0,2.52-.37l.37,0,.32,0a6,6,0,0,0,.61-.09,10.76,10.76,0,0,0,1.71-.13,8.61,8.61,0,0,0,4.53-2.21,9.53,9.53,0,0,0,2-2.71C157.5,169.44,158.21,166.68,158,161.89Zm-28.16-.56c.24-7,4-21.71,8.24-29.68-.15.35-.29.72-.44,1.09-4,8.41-7.3,21.78-7.53,28.54a13.49,13.49,0,0,0,2.35,7.83A13.13,13.13,0,0,1,129.81,161.33Zm10,12.94c-6-2.81-9-8.64-8.81-12.94.12-3.82,1.33-10,3.09-16.11-1.37,6.61-2.14,13.31-1.95,17.43.24,5.21,3.94,9.55,8.08,11.8A3.65,3.65,0,0,1,139.82,174.27Zm-6.75-11.68c-.27-6,1.62-18,4.4-26.58.32-1,.64-1.88,1-2.75.13-.26.25-.52.38-.77a95.45,95.45,0,0,0-4.46,21.32,57.48,57.48,0,0,0-.29,9.33,14,14,0,0,0,6.3,10.18C135.78,170.78,133.24,166.26,133.07,162.59Z"></path><path class="cls-18" d="M148.88,153.85l-3.17.57c-4.77.7-11.19,1-11.86,1-.06-.06-2.34-2.18-3.23-2.18s-3.5.94-3.76,1.67-.37,2,.37,2.33a32.86,32.86,0,0,0,4.61,1.09h.38a81.25,81.25,0,0,0,14.41,2.89,35.15,35.15,0,0,0,4,.27A21,21,0,0,0,148.88,153.85Z"></path><g id="P297LW-2" data-name="P297LW"><path class="cls-17" d="M380.67,128.94c-1.94,5.93-12.48,16.17-13.94,17.19,0,0-2.46-4.09-2-6.38.41-1.87,4.51-8.54,5.92-11.81.07-.17.14-.33.19-.48a3,3,0,0,0,.28-1.13c-.08-.71-2.31-2.44-4.91-4.49-3.38-2.67-7.37-5.88-8-8.1-1.14-3.93-5.11-19.48-5.11-19.48s9.86,2.13,12.64,4.59S380.47,121.75,381,127A4.92,4.92,0,0,1,380.67,128.94Z"></path><path class="cls-18" d="M380.67,128.94c-1.94,5.93-12.48,16.17-13.94,17.19,0,0-2.46-4.09-2-6.38.43-2,4.95-9.24,6.11-12.29A15.32,15.32,0,0,1,380.67,128.94Z"></path><path class="cls-18" d="M353.11,92.9v1.2s.32,3.78-4.33,4.33-8.15-1.13-8-4.05a37.23,37.23,0,0,0,.89-6,13.25,13.25,0,0,0-.17-2.26l9-.18,2.66.44Z"></path><path class="cls-20" d="M353.15,86.37l0,6.53a7.68,7.68,0,0,1-3.25.71c-4.14,0-6.81-3-8.21-5.24a13.25,13.25,0,0,0-.17-2.26l9-.18Z"></path><path class="cls-11" d="M345.17,253a21.24,21.24,0,0,0-1.45-5.43c-1-2-7.46-.74-7.46-.74s-1.29,1.1-1.56,6.26Z"></path><path class="cls-11" d="M367.13,253c-1.52-.93-.66-7.82-.66-7.82s7.06-5.65,8-1.33,6.7,6.27,10,6.8c2.25.36,2.95,1.61,3.16,2.35Z"></path><path class="cls-14" d="M352.51,202.07a32.34,32.34,0,0,1,.52,3.81c.66,12.8,10.77,42.05,12.58,42.73,2.8,1.06,7.21-1.19,9.51-1.92a2,2,0,0,0,1.39-2.25c-5-23-6.85-56.18-7.52-75.81a89.57,89.57,0,0,0-2-16.72s-24.67-6.58-24.82,1.74C342,161,350.31,189.92,352.51,202.07Z"></path><path class="cls-13" d="M352.51,202.07,369,168.63a89.57,89.57,0,0,0-2-16.72s-24.67-6.58-24.82,1.74C342,161,350.31,189.92,352.51,202.07Z"></path><path class="cls-14" d="M358,153.68,345,248.2s-5.73,1.38-10.18.27c0,0-3.82-50.26-3.5-62.42s-2.74-32.51.7-34.76S358,153.68,358,153.68Z"></path><path class="cls-17" d="M367.67,153.86a34.4,34.4,0,0,1-16.32,3.77,72.6,72.6,0,0,1-9.81-.73c-7.75-1.15-11.65-3.31-11.62-4.12s.08-3.14.17-4.17c1.23-14.19.59-25.23,2.25-33.52l.06-.29c2.19-10.54,5.62-16.6,7.33-19.08a9.29,9.29,0,0,1,1-1.34c0,2,4.19,3.67,7.6,3.45,2.88-.19,4.75-2.38,4.75-3.56h0c.23,0,13,8.86,13,17.08C366.14,148.22,368.37,153.87,367.67,153.86Z"></path><path class="cls-19" d="M341.55,156.78s0,.08,0,.12c-7.75-1.15-11.65-3.31-11.62-4.12s.08-3.14.17-4.17c1.23-14.19.59-25.23,2.25-33.52C336.4,120.53,344.75,134.75,341.55,156.78Z"></path><path class="cls-18" d="M353.67,89.54s-11.54,2.33-12.88-4.88-3.73-11.76,3.58-13.55,9.26.69,10.29,3S356.64,88.75,353.67,89.54Z"></path><path class="cls-21" d="M341,86.74a38.42,38.42,0,0,0-4.09-6.87c-1.86-2.12-.84-12.69,7.19-12.35s10.91,6.09,11,7.19-6.42.25-8.2,1.69-.08,3.8-2.11,4.65-3.64.85-3.3,2.71A4,4,0,0,1,341,86.74Z"></path><path class="cls-15" d="M343.5,62.61a12.75,12.75,0,0,0-5.31,2.61l-.37.34h0C333.05,70.11,335,77.34,335,77.34A18.58,18.58,0,0,0,336,79.87c.43.71,6.76-.11,7.09-1.47a7.89,7.89,0,0,1,1.58-2.78l7.11-.49a39.43,39.43,0,0,0,5.81-1.61C357.57,73.1,355.15,59.69,343.5,62.61Z"></path><path class="cls-16" d="M361.57,72.11a21.94,21.94,0,0,0-4.41-.5,18.09,18.09,0,0,1-5.64,2.75c-1.76-2.22-6.79-7.57-13.33-9.14h-.06c-.13.17-.21.23-.31.35h0l-.1.13c5.33.93,10.39,6.91,12.13,9.14a29.58,29.58,0,0,1-5.15.79s11.65.22,17-2.59A.5.5,0,0,0,361.57,72.11Z"></path><path class="cls-19" d="M373.44,125a3.34,3.34,0,0,1-2.76,2.92c.07-.17.14-.33.19-.48a3,3,0,0,0,.28-1.13c-.08-.71-2.31-2.44-4.91-4.49a18.56,18.56,0,0,1,0-7.37C367.14,111.12,373.68,123.63,373.44,125Z"></path><path class="cls-19" d="M370.68,127.94a29,29,0,0,1,9.39,2.45s1.16-1.14.7-1.79S372.94,125.59,370.68,127.94Z"></path><rect class="cls-22" x="331.79" y="138.47" width="36.63" height="3.63" transform="translate(115.42 435.54) rotate(-73.36)"></rect><path class="cls-22" d="M358.09,116.72l-.28.93L356,116.6a2.7,2.7,0,0,0-4,1.43l-3.63,12.14-3.06-.91L350,113.88a2.56,2.56,0,0,1,3.67-1.42l3.36,1.77A2.14,2.14,0,0,1,358.09,116.72Z"></path><rect class="cls-22" x="346.05" y="124.25" width="7.92" height="4.53" transform="translate(128.55 425.62) rotate(-73.36)"></rect><path class="cls-23" d="M349.63,128.59a.5.5,0,1,1,.62-.34A.49.49,0,0,1,349.63,128.59Z"></path><path class="cls-23" d="M350.55,125.53a.5.5,0,1,1,.28-1,.5.5,0,0,1,.34.62A.51.51,0,0,1,350.55,125.53Z"></path><path class="cls-18" d="M342.79,144.6A47.53,47.53,0,0,1,322,136.22a19,19,0,0,1-1.5-1.22c-5.5-11.56,4.45-31.84,6.27-35.28,2-3.71,13.95-5.34,13.95-5.34a65.72,65.72,0,0,0-2.66,13c-.75,7.34-8.73,21.64-8.4,22.85a7.59,7.59,0,0,0,2.45,1.73c4.17,2.38,12.22,6.2,12.71,7.1C345.51,140.24,342.79,144.6,342.79,144.6Z"></path><path class="cls-18" d="M344.86,139s6-2.4,7.47-1.42,3.93,2.46,3.93,3.44-3.11,3.6-5.73,4.41-7.74-.87-7.74-.87Z"></path><path class="cls-17" d="M338.1,107.36c-.75,7.34-8.73,21.64-8.4,22.85a7.59,7.59,0,0,0,2.45,1.73h-.27c-6.27-.28-9.11,3.19-9.84,4.27a19,19,0,0,1-1.5-1.22c-5.5-11.56,4.45-31.84,6.27-35.28,2-3.71,13.95-5.34,13.95-5.34A65.72,65.72,0,0,0,338.1,107.36Z"></path><path class="cls-19" d="M330.9,131.12s-8-.66-10.63,4a1.3,1.3,0,0,0,1.77,1.09s6.78-4.64,10.11-4.28A1.78,1.78,0,0,0,330.9,131.12Z"></path></g><path class="cls-10" d="M269,102.44c3.57-18.26,6.83-35.74,6.83-35.74s-10.14,1.54-14.51,5.18-4.8,26.8-6.26,33.35a52.31,52.31,0,0,0-.76,5.89c-.83,9.42.2,23.52,1,27.47a21.24,21.24,0,0,1-2.09,5.83s-.89,2.75,4.93,6.87C261.79,153.92,265.09,122.28,269,102.44Z"></path><path class="cls-9" d="M275.79,66.7s-1.88,10.08-4.35,22.92c-.78,4.07-1.62,8.42-2.48,12.82-3.49,6.84-6.48,11.49-7.41,10.61-1.88-1.78-5.19-2-7.29-1.93a52.31,52.31,0,0,1,.76-5.89c.12-.52.23-1.14.33-1.85,1.22-8.24,1.91-28.15,5.93-31.5C265.65,68.24,275.79,66.7,275.79,66.7Z"></path><path class="cls-12" d="M271.44,89.62c-.78,4.07-1.62,8.42-2.48,12.82-3.49,6.84-6.48,11.49-7.41,10.61-1.88-1.78-5.19-2-7.29-1.93a52.31,52.31,0,0,1,.76-5.89c.12-.52.23-1.14.33-1.85l10.46-25.25Z"></path><path class="cls-10" d="M290.27,66.45a76.28,76.28,0,0,0-.46-11.29l-14.07,2.3s0,4.29.06,9.05h0s-.38,4.41,5.06,5.06S290.42,69.86,290.27,66.45Z"></path><path class="cls-24" d="M275.7,58.32s3.32,6.79,7.12,6.79,7.35-6.38,7.35-6.38Z"></path><path class="cls-11" d="M285.08,253a24.64,24.64,0,0,1,1.7-6.36c1.18-2.38,8.73-.87,8.73-.87s1.51,1.3,1.83,7.33Z"></path><path class="cls-11" d="M259.37,252.91c1.78-1.08.77-9.15.77-9.15s-8.26-6.61-9.4-1.55-7.85,7.33-11.67,7.95c-2.64.43-3.45,1.89-3.71,2.75Z"></path><path class="cls-21" d="M291.61,51.1S301,36.29,283,35.31c0,0-6.77.8-8.3-.74,0,0-5.25,8-.35,16.53S291.61,51.1,291.61,51.1Z"></path><path class="cls-10" d="M276.16,58.83c1.37,1.07,5.37,2.14,6.53,2.27,0,0,5.95-1.33,7-2,1.67-1,1.56-3.07,1.65-5.92.1-3.38.44-6,.07-8-.45-2.33-1.93-3.66-6.07-4-7.59-.66-10.75,1.24-10.88,3.79q-.06,1-.09,1.95C274.09,54.88,274.72,57.69,276.16,58.83Z"></path><path class="cls-14" d="M276.48,192.92a39.93,39.93,0,0,0-.6,4.46c-.77,15-12.61,49.24-14.73,50-3.28,1.24-8.44-1.39-11.14-2.25a2.31,2.31,0,0,1-1.62-2.63c5.86-27,8-65.78,8.8-88.76a105,105,0,0,1,2.38-19.58s28.89-7.7,29.06,2.05C288.78,144.86,279.06,178.69,276.48,192.92Z"></path><path class="cls-13" d="M276.48,192.92l-19.29-39.15a105,105,0,0,1,2.38-19.58s28.89-7.7,29.06,2.05C288.78,144.86,279.06,178.69,276.48,192.92Z"></path><path class="cls-14" d="M270.06,136.27l15.27,110.66s6.7,1.62,11.92.32c0,0,4.47-58.85,4.09-73.08s3.21-38.07-.81-40.7S270.06,136.27,270.06,136.27Z"></path><path class="cls-7" d="M302.72,133.47a2.28,2.28,0,0,1-2.24,2.37l-24.06.37-17.68.27c-.82,0,1.79-6.61,1.84-49.78,0-9.63,14.93-20,15.21-20h0c0,1.39,2.19,4,5.55,4.17,4,.26,8.9-1.73,8.9-4a11.09,11.09,0,0,1,1.22,1.57c2,2.9,6,10,8.58,22.33,2,9.75,1.24,22.77,2.7,39.58C302.85,131.54,302.69,132.62,302.72,133.47Z"></path><path class="cls-9" d="M301.83,136a48.3,48.3,0,0,1-9.18,2.68,90.28,90.28,0,0,1-17.78,1.78c-11.7.08-16.13-4-16.13-4-.82,0,1.79-6.61,1.84-49.78,0-9.63,14.93-20,15.21-20h0s-.38,12.83,3.5,16.6c0,0,5.44-4.2,12.5-16.16,2,2.9,5.68,11.26,8.25,23.6a67.78,67.78,0,0,1,1.09,8.19c.68,8.52.53,18.91,1.61,31.39.11,1.22-.05,2.3,0,3.15C302.77,134.75,303.12,136,301.83,136Z"></path><path class="cls-12" d="M301.83,136a48.3,48.3,0,0,1-9.18,2.68c-1.88-2.87-4.25-8.06-4.58-16.22-.55-13.8,12.56-31.58,12.56-31.58l.5,8.08c.68,8.52.53,18.91,1.61,31.39.11,1.22-.05,2.3,0,3.15C302.77,134.75,303.12,136,301.83,136Z"></path><rect class="cls-22" x="275.25" y="93.31" width="25.81" height="35.41" transform="translate(-16.9 158.95) rotate(-30)"></rect><path class="cls-10" d="M304.4,71.34c-2.74-2.07-9.17-3.54-12.33-4.16-1.12-.22-1.83-.34-1.83-.34.33,1.52,1.08,3.91,2.05,6.78,4.06,12,12.12,32.42,10.49,32.86a47.67,47.67,0,0,1-4.87.94c-7.06,1-16.57,1.49-17.57,1.53-.07-.07-3.46-3.23-4.78-3.23s-5.18,1.41-5.57,2.48-.55,3,.55,3.45a49.86,49.86,0,0,0,6.83,1.62,3.58,3.58,0,0,0,.56,0,119.47,119.47,0,0,0,21.34,4.29,69,69,0,0,0,12.41.35C317.35,105.7,308.1,74.14,304.4,71.34Z"></path><path class="cls-9" d="M311.68,117.9a69,69,0,0,1-12.41-.35,14.72,14.72,0,0,0-1.36-10.13,47.67,47.67,0,0,0,4.87-.94c1.63-.44-6.43-20.86-10.49-32.86-.33-3.89-.5-6.48-.5-6.48l.28,0c3.16.62,9.59,2.09,12.33,4.16C308.1,74.14,317.35,105.7,311.68,117.9Z"></path><path class="cls-12" d="M279.29,83.3s10.88-4.79,11-5.17A8.45,8.45,0,0,0,289,74s5.23.48,5.55-.16.57-6,.57-6a8.83,8.83,0,0,0-4.87-2.47s-2.37,5.88-3.24,7.63C284.73,77.64,279.29,83.3,279.29,83.3Z"></path><path class="cls-12" d="M276.7,73.82a36.18,36.18,0,0,0,2.59,9.48s-5.69-4-6.17-5.25,1.37-3.8,1.37-3.8-3.4-.08-3.48-1.21a36.39,36.39,0,0,1,1.05-5.58s2.92-2.13,3.73-2Z"></path><path class="cls-15" d="M295.13,42.85,271,43.11s-.35-7.29,3.84-11.94c.19-.22.39-.42.61-.63a10.57,10.57,0,0,1,3.3-2.14A11,11,0,0,1,290,30.15c.25.18.48.37.7.56a14.19,14.19,0,0,1,2.12,2.19S295.21,36.1,295.13,42.85Z"></path><path class="cls-16" d="M288.34,42.92c-.07-1-.49-9.34,2.44-12.18a5,5,0,0,0-.4-.33C287.25,33.67,287,41.9,287,42.94l-7.72.08c-.23-5.92-3.5-11.82-3.89-12.48-.22.21-.26.25-.45.46a35.18,35.18,0,0,1,2.9,12l-6.9.08a52.92,52.92,0,0,0,11.29,1.6c4.85-.06,12.89-1.86,12.89-1.86Z"></path><path class="cls-11" d="M204.71,253a18.12,18.12,0,0,1,1.14-5.61c1-2,8.81-.61,8.81-.61a13,13,0,0,1,1.56,6.2Z"></path><path class="cls-11" d="M183.7,253a17.94,17.94,0,0,1,1.15-5.61c1-2,8.8-.61,8.8-.61a12.9,12.9,0,0,1,1.56,6.2Z"></path><path class="cls-18" d="M209.78,98.11c-1,.71-9.83,5.33-9.83,5.33l-9.33-6.65s2.83-.41,2.91-.44c.84-.23.8-2.49.91-4.9l.06-1.11,9.14-.33v.11c0,.12,0,.24,0,.36l0,.26a2.46,2.46,0,0,1,0,.28c.17,2.11.52,5.1,1.2,5.45C205.29,96.66,207.89,96.63,209.78,98.11Z"></path><path class="cls-20" d="M203.71,91c-.75,1.51-2.43,4.13-4.92,4s-3.73-2.25-4.35-3.62l.06-1.11,9.14-.33v.11l0,.36,0,.26A2.46,2.46,0,0,1,203.71,91Z"></path><path class="cls-22" d="M193.42,70a6.9,6.9,0,0,1,9.6.09S199.93,69.41,193.42,70Z"></path><path class="cls-13" d="M191.78,86.11a37.4,37.4,0,0,1-2.26-6.26c-.61-2.4-.05-11.52,9.12-10.9a12.3,12.3,0,0,1,5.25,1.55c2.07,1.18,5.13,3.84,2.54,12l-.62,2.72Z"></path><path class="cls-18" d="M204.61,89.94c-2.37,2.26-5.31,5.28-11.65-.3-1.24-1.09-1.15-2.77-1.23-5.17-.08-2.86-.77-4.6-.45-6.25.38-2,2.06-2.85,5.55-3.16,6.41-.55,9.65.89,9.22,4.07C205.09,86.23,207,87.64,204.61,89.94Z"></path><path class="cls-25" d="M199.38,75s3.8-.08,4.67,1.19,1,2.69,1.42,3.41a2.73,2.73,0,0,1,.37,1.51l.84-5.67-5.14-1Z"></path><path class="cls-7" d="M221.54,106.23s-1.62,4.78-8.2,5.65a4.87,4.87,0,0,1-.55.06H186l-.14,0c-1-.33-7.44-2.52-8.12-6.62,0,0,3.37-6.91,5.94-7.77a16.06,16.06,0,0,1,2.87-.58c1.11-.14,2.29-.24,3.27-.3,1.35-.08,2.35-.11,2.35-.11a8.06,8.06,0,0,0,7.16,4.17c5.08-.06,6.25-4.1,6.25-4.1s1.43,0,3.32.24c1.05.11,2.23.28,3.4.51a12.33,12.33,0,0,1,5,1.88C220.26,101.61,221.54,106.23,221.54,106.23Z"></path><path class="cls-14" d="M215.17,143.2c-.29-1.58-.71-4-1-6.11,0,0,1-12,1.36-14s-2.13-13-2.13-13c-.58-1.68-1.56-2.2-2.32-2.2l1.27-10.57c-1.17-.23-2.35-.4-3.4-.51l-.6,11.08v.16c-1.39.08-3.12.17-4.74.24s-3.1.13-4,.13c-1.87,0-6.16-.21-9-.37v-.16l-.69-11.28c-1,.06-2.16.16-3.27.3l1.21,11h0c-.8,0-1.71,1.42-1.84,2.21l-.12,3.43a38.2,38.2,0,0,0-2.06,8.27c-.28,3.57,1.21,16,1.22,16.05-.05,1.48-.16,3.37-.36,5.2a102,102,0,0,0-5.41,36.1c.46,17.7.72,48,2.81,62.64a40.92,40.92,0,0,0,1.17,5.8,2,2,0,0,0,1.61,1.36c2.39.33,7.78.94,10.1.09,1.11-.4,1.91-6.57,2.47-14.53.54-7.63.87-16.91,1-24.31h0c.14-5.9.2-10.61.2-12.35,0-4,.93-15.52,1.24-22.33a.15.15,0,0,1,.3,0h0c.47,8.08,2.1,20.34,2.13,23.06.06,6.61-.33,49,2.56,50.46,2.21,1.09,7.41.27,9.89-.07a2.28,2.28,0,0,0,1.89-1.63c3.11-10.68,3.38-47.78,3.91-68.19A102.57,102.57,0,0,0,215.17,143.2Z"></path><path class="cls-18" d="M190.84,150.84c-.92.73-3.91.43-5.07-.55s-3.49-.67-4-1c0,0-10.86-12.85-12-18.24s6.31-20.42,8.42-24.51c1.57,3.32,6.8,5.1,7.73,5.4l.14,0h.29c-1.76,4.77-7,13.35-9.06,16.58a2.81,2.81,0,0,0-.17,2.68c2.61,5.59,5.16,10.31,6.28,13.58.22.36.7,1,1.27.92.8-.12,3.37-.67,4.65,1.22S191.76,150.11,190.84,150.84Z"></path><path class="cls-15" d="M207.31,70.09a14.21,14.21,0,0,0-2-2l-.64-.52a10.29,10.29,0,0,0-10.53-1.62,10.06,10.06,0,0,0-3.06,2c-.2.19-.38.38-.56.58C186.66,72.8,187,79.56,187,79.56l22.42-.24C209.48,73.06,207.31,70.09,207.31,70.09Z"></path><path class="cls-16" d="M203.11,79.39c-.06-.94-.49-8.68,2.23-11.32a3.05,3.05,0,0,0-.38-.32c-2.9,3-3.09,10.66-3.07,11.65l-7.17.08c-.21-5.49-3.24-11-3.61-11.57a5.51,5.51,0,0,0-.41.43,32.55,32.55,0,0,1,2.69,11.15l-6.4.07a48.58,48.58,0,0,0,10.47,1.49,76.77,76.77,0,0,0,11.95-1.73Z"></path><path class="cls-13" d="M191.69,109.07c-2.29,4.4-8.81,5.23-8.81,5.23,2.11-5.14-2.14-6.76-4.77-12s2-8.74,2-8.74c-2.87.55-3.42,4.4-3.42,4.4-.25-2.57,1.89-6.91,8.68-7.77,5-.63,6.17-2.3,6.46-3.15A3.71,3.71,0,0,0,193,89.64c.52.46,1,.87,1.51,1.22,0,.2,0,.4,0,.59,0,.68,0,1.35-.08,2a3.3,3.3,0,0,0-.71,2.89,3.19,3.19,0,0,0,.23.72,6.14,6.14,0,0,1,1.18,2.93C195.38,102.86,193.41,105.77,191.69,109.07Z"></path><path class="cls-13" d="M215.12,142.92l-1-5.83a45.31,45.31,0,0,1-13.41,2.78,3.25,3.25,0,0,0-2.39-1.66l-3.56-.52a3.24,3.24,0,0,0-3.34,1.72,34.22,34.22,0,0,1-6.46-1.57v0l-.35,5.11h0c2,.55,4,1,5.91,1.3l-.11.71a3.24,3.24,0,0,0,2.73,3.68l3.94.59a3.25,3.25,0,0,0,3.72-3l.07-1.1A42.63,42.63,0,0,0,215.12,142.92Z"></path><path class="cls-18" d="M229.53,131c-1.17,5.39-12,18.21-12,18.24a1.36,1.36,0,0,1-.42.14h0c-.89.16-2.64.09-3.59.9-1.16,1-4.16,1.28-5.08.55s.31-2,1.59-3.92,3.85-1.34,4.65-1.22c.47.07.88-.35,1.13-.71l0,0a1.45,1.45,0,0,0,.12-.19c1.1-3.2,3.56-7.78,6.11-13.21a3.56,3.56,0,0,0-.2-3.38c-1.7-2.72-5.16-8.36-7.38-12.89-.26-1.31-.52-2.54-.72-3.47a9.93,9.93,0,0,0,7.56-5C223.57,111.28,230.69,125.69,229.53,131Z"></path><line class="cls-26" x1="34.83" y1="253.4" x2="530.62" y2="253.4"></line></g></svg> 